<svg width="52" height="66" viewBox="0 0 52 66" fill="none" xmlns="http://www.w3.org/2000/svg">
<rect width="52" height="66" fill="#1E1E1E"/>
<g clip-path="url(#clip0_0_1)">
<rect width="390" height="844" transform="translate(-315)" fill="black"/>
<path d="M26.0422 15.5055V2.21506" stroke="#7958FF" stroke-width="4.31634" stroke-miterlimit="10"/>
<path d="M38.2767 0H13.8076V5.1685H38.2767V0Z" fill="#7958FF"/>
<path d="M26.0422 16.0224C32.3371 16.0224 38.3741 18.5376 42.8253 23.0148C47.2765 27.4919 49.7771 33.5642 49.7771 39.8959C49.7771 46.2276 47.2765 52.2999 42.8253 56.777C38.3741 61.2542 32.3371 63.7694 26.0422 63.7694" stroke="#7958FF" stroke-width="3.0831" stroke-miterlimit="10"/>
<path d="M26.0226 16.0224C33.8869 16.0224 40.2635 26.7089 40.2635 39.8959C40.2635 53.083 33.9016 63.7694 26.0226 63.7694" stroke="#7958FF" stroke-width="3.0831" stroke-miterlimit="10"/>
<path d="M26.0078 16.0224C28.6308 16.0224 30.7547 26.7089 30.7547 39.8959C30.7547 53.083 28.6308 63.7694 26.0078 63.7694" stroke="#7958FF" stroke-width="3.0831" stroke-miterlimit="10"/>
<path d="M25.9933 16.0224C23.3702 16.0224 21.2463 26.7089 21.2463 39.8959C21.2463 53.083 23.3702 63.7694 25.9933 63.7694" stroke="#7958FF" stroke-width="3.0831" stroke-miterlimit="10"/>
<path d="M25.9592 16.0224C18.0949 16.0224 11.7182 26.7089 11.7182 39.8959C11.7182 53.083 18.0802 63.7694 25.9592 63.7694" stroke="#7958FF" stroke-width="3.0831" stroke-miterlimit="10"/>
<path d="M25.959 16.0224C19.6641 16.0224 13.627 18.5376 9.17586 23.0148C4.72469 27.4919 2.22405 33.5642 2.22405 39.8959C2.22405 46.2276 4.72469 52.2999 9.17586 56.777C13.627 61.2542 19.6641 63.7694 25.959 63.7694" stroke="#7958FF" stroke-width="3.0831" stroke-miterlimit="10"/>
<path d="M7.69518 25.2173C10.3835 24.7218 13.0784 24.3378 15.7797 24.0655C18.0831 23.8292 20.3897 23.675 22.6996 23.6028C24.8969 23.5339 27.104 23.5388 29.2915 23.6028C31.6177 23.6815 33.9374 23.8456 36.2505 24.095C38.9715 24.3871 41.6875 24.7907 44.3987 25.3059" stroke="#7958FF" stroke-width="3.0831" stroke-miterlimit="10"/>
<path d="M2.01855 35.2589C5.24847 34.98 8.48164 34.7552 11.7181 34.5846C14.8893 34.4172 18.067 34.3089 21.2512 34.2597C24.4354 34.2105 27.5968 34.2105 30.7354 34.2597C33.9164 34.3188 37.099 34.432 40.2832 34.5993C43.5196 34.7765 46.7512 35.0079 49.9778 35.2934" stroke="#7958FF" stroke-width="3.0831" stroke-miterlimit="10"/>
<path d="M2.01855 44.892C5.2452 45.1775 8.47348 45.404 11.7034 45.5713C14.8844 45.7453 18.0653 45.8568 21.2463 45.9061C24.4273 45.9553 27.5919 45.9553 30.7403 45.9061C33.9245 45.847 37.1071 45.7338 40.2881 45.5664C43.518 45.3892 46.7479 45.1562 49.9778 44.8674" stroke="#7958FF" stroke-width="3.0831" stroke-miterlimit="10"/>
<path d="M7.29899 54.8254C10.0297 55.357 12.7719 55.7689 15.5255 56.0609C17.8843 56.3169 20.2529 56.4793 22.6166 56.5532C24.8677 56.6319 27.1189 56.6319 29.37 56.5532C31.7484 56.4695 34.117 56.2874 36.4905 56.0265C39.2604 55.6983 42.0238 55.2668 44.7806 54.7319" stroke="#7958FF" stroke-width="3.0831" stroke-miterlimit="10"/>
</g>
<defs>
<clipPath id="clip0_0_1">
<rect width="390" height="844" fill="white" transform="translate(-315)"/>
</clipPath>
</defs>
</svg>
